# xmcd
#
# Track frame offsets: 
#        150
#        12087
#        26475
#        35867
#        49270
#        59067
#        74697
#        85095
#        94197
#        106622
#        120167
#        135505
#        152505
#        164437
#        176617
#
# Disc length: 2740 seconds
#
# Revision: 13
# Processed by: cddbd v1.5.2PL0 Copyright (c) Steve Scherf et al.
# Submitted via: ExactAudioCopy v1.3
#
DISCID=c00ab20f
DTITLE=The Beatles - Yellow Submarine Songtrack
DYEAR=1969
DGENRE=Rock
TTITLE0=Yellow Submarine
TTITLE1=Hey Bulldog
TTITLE2=Eleanor Rigby
TTITLE3=Love You To
TTITLE4=All Together Now
TTITLE5=Lucy In The Sky With Diamonds
TTITLE6=Think For Yourself
TTITLE7=Sgt. Pepper's Lonely Hearts Club Band
TTITLE8=With A Little Help From My Friends
TTITLE9=Baby You're A Rich Man
TTITLE10=Only A Northern Song
TTITLE11=All You Need Is Love
TTITLE12=When I'm Sixty Four
TTITLE13=Nowhere Man
TTITLE14=It's All Too Much
EXTD=
EXTT0=
EXTT1=
EXTT2=
EXTT3=
EXTT4=
EXTT5=
EXTT6=
EXTT7=
EXTT8=
EXTT9=
EXTT10=
EXTT11=
EXTT12=
EXTT13=
EXTT14=
PLAYORDER=
